<?xml version="1.0" encoding="UTF-8"?>
<svg width="24" height="24" viewBox="0 0 24 24" fill="none" xmlns="http://www.w3.org/2000/svg">
    <path d="M4 4H20V20H4V4Z" fill="#0A549C"/>
    <path d="M8 8H10.6667C11.7333 8 12.6667 8.93333 12.6667 10C12.6667 11.0667 11.7333 12 10.6667 12H8V8Z" fill="white"/>
    <path d="M8 12H10.6667C11.7333 12 12.6667 12.9333 12.6667 14C12.6667 15.0667 11.7333 16 10.6667 16H8V12Z" fill="white"/>
    <path d="M13.3333 8H16C17.0667 8 18 8.93333 18 10C18 11.0667 17.0667 12 16 12H13.3333V8Z" fill="white"/>
    <path d="M13.3333 12H16C17.0667 12 18 12.9333 18 14C18 15.0667 17.0667 16 16 16H13.3333V12Z" fill="white"/>
</svg>
