<?xml version="1.0" encoding="UTF-8"?>
<svg width="100" height="100" viewBox="0 0 100 100" fill="none" xmlns="http://www.w3.org/2000/svg">
    <path d="M50 35C43.0964 35 37.5 40.5964 37.5 47.5C37.5 54.4036 43.0964 60 50 60C56.9036 60 62.5 54.4036 62.5 47.5C62.5 40.5964 56.9036 35 50 35Z" fill="#DB4437"/>
    <path d="M50 12.5C35.2827 12.5 22.7452 21.8452 17.9077 35H44.2327C46.0577 33.7 48.2077 33.125 50 33.125C55.3452 33.125 60.0952 35.9375 62.5 40.625H87.5C83.0952 24.375 67.8452 12.5 50 12.5Z" fill="#4285F4"/>
    <path d="M17.9077 35C16.6577 38.8375 16.25 42.675 16.25 46.875C16.25 69.7125 31.7952 88.75 50 88.75C67.8452 88.75 83.0952 76.875 87.5 60.625H62.5C60.0952 65.3125 55.3452 68.125 50 68.125C42.6827 68.125 36.6577 62.5375 35.4077 55H17.9077V35Z" fill="#0F9D58"/>
</svg>
