<?xml version="1.0" encoding="UTF-8"?>
<svg width="100" height="100" viewBox="0 0 100 100" fill="none" xmlns="http://www.w3.org/2000/svg">
    <path fill-rule="evenodd" clip-rule="evenodd" d="M50 8.33334C26.9792 8.33334 8.33334 26.9792 8.33334 50C8.33334 68.4375 20.3125 84.0625 36.9792 89.7917C39.1667 90.2083 40 88.8542 40 87.7083V80.4167C28.5417 82.8125 26.0417 75.2083 26.0417 75.2083C24.0625 70.4167 21.25 69.0625 21.25 69.0625C17.2917 66.4583 21.5625 66.5625 21.5625 66.5625C25.9375 66.875 28.2292 70.9375 28.2292 70.9375C32.0833 77.2917 38.5417 75.4167 40.2083 74.2708C40.625 71.5625 41.7708 69.6875 43.0208 68.6458C33.8542 67.5 24.1667 63.9583 24.1667 47.9167C24.1667 43.3333 26.0417 39.5833 28.3333 36.6667C27.8125 35.5208 26.1458 31.25 28.75 25.7292C28.75 25.7292 32.3958 24.5833 40 29.7917C43.125 28.8542 46.5625 28.3333 50 28.3333C53.4375 28.3333 56.875 28.8542 60 29.7917C67.6042 24.5833 71.25 25.7292 71.25 25.7292C73.8542 31.25 72.1875 35.5208 71.6667 36.6667C73.9583 39.5833 75.8333 43.3333 75.8333 47.9167C75.8333 64 66.1458 67.5 56.9792 68.6458C58.5417 70 60 72.7083 60 76.7708V87.7083C60 88.8542 60.8333 90.2083 63.0208 89.7917C79.6875 84.0625 91.6667 68.4375 91.6667 50C91.6667 26.9792 73.0208 8.33334 50 8.33334Z" fill="white"/>
</svg>
