<?xml version="1.0" encoding="UTF-8"?>
<svg width="24" height="24" viewBox="0 0 24 24" fill="none" xmlns="http://www.w3.org/2000/svg">
    <path d="M21.7428 12.2242C21.7428 11.4451 21.6776 10.6661 21.5375 9.90723H12.2446V13.5495H17.6086C17.3936 14.7029 16.7275 15.7072 15.7555 16.3577V18.7793H19.0116C20.7847 17.1398 21.7428 14.8959 21.7428 12.2242Z" fill="#4285F4"/>
    <path d="M12.2446 21.8182C14.9619 21.8182 17.2397 20.9105 19.0116 18.7793L15.7555 16.3577C14.9228 16.9117 13.7128 17.2372 12.2446 17.2372C9.50298 17.2372 7.19087 15.4023 6.40613 12.9155H3.0459V15.4128C4.8074 19.1373 8.27322 21.8182 12.2446 21.8182Z" fill="#34A853"/>
    <path d="M6.40613 12.9155C6.04844 11.8069 6.04844 10.6013 6.40613 9.49274V7.00488H3.0459C1.86939 9.69885 1.86939 12.7094 3.0459 15.4128L6.40613 12.9155Z" fill="#FBBC04"/>
    <path d="M12.2446 6.58116C13.7063 6.55611 15.1159 7.12057 16.1718 8.13532L19.0507 5.25642C17.2006 3.52153 14.7664 2.57635 12.2446 2.61825C8.27322 2.61825 4.8074 5.29917 3.0459 9.02419L6.40613 11.5215C7.19087 9.0347 9.50298 7.19979 12.2446 7.19979V6.58116Z" fill="#EA4335"/>
</svg>
