<?xml version="1.0" encoding="UTF-8"?>
<svg width="24" height="24" viewBox="0 0 24 24" fill="none" xmlns="http://www.w3.org/2000/svg">
    <path d="M18.8039 14.6289L21.3774 16.1829C22.1258 16.6533 22.2602 17.6335 21.6514 18.2766C19.8127 20.2174 17.4518 21.5584 14.8342 22.0777C14.0023 22.2416 13.1899 21.6526 13.0844 20.8143L12.5101 16.4761C12.3851 15.4959 13.2416 14.6873 14.2218 14.8123L17.5325 15.2827C18.2809 15.3827 18.7512 15.0859 18.8039 14.6289Z" fill="#D32323"/>
    <path d="M12.4497 12.0004L16.788 11.426C17.7682 11.301 18.3967 10.3208 17.9791 9.42323L16.4251 6.84969C16.1547 6.31934 15.5591 6.03158 14.9767 6.13423C12.3591 6.65362 10.0509 8.04729 8.26494 9.98811C7.65615 10.6312 7.79054 11.6114 8.53891 12.0818L11.1125 13.6358C11.643 14.0007 12.3327 13.8663 12.4497 12.0004Z" fill="#D32323"/>
    <path d="M14.2218 9.18844L13.0844 3.18618C12.9789 2.34787 12.1665 1.75886 11.3346 1.92279C8.71697 2.44218 6.35608 3.78318 4.51741 5.72399C3.90862 6.36707 4.04301 7.34726 4.79138 7.81761L7.36492 9.37163C7.89527 9.73668 8.58495 9.60229 8.70199 8.93996L9.27635 5.62929C9.38603 4.88092 9.89903 4.62844 10.3694 4.68111L13.6801 5.15146C14.6603 5.27586 15.1306 6.25605 14.2218 9.18844Z" fill="#D32323"/>
</svg>
